# xmcd CD database file
#
# Track frame offsets:
#	150
#	23392
#	44795
#	61982
#	80362
#	102212
#	125212
#	154682
#	182757
#	203450
#	218710
#	243270
#
# Disc length: 3661 seconds
#
# Revision: 5
# Processed by: cddbd v1.5.1PL0 Copyright (c) Steve Scherf et al.
# Submitted via: CDex 1.51
#
DISCID=9a0e4b0c
DTITLE=The Yellow Monkey - Jaguar Hard Pain
DYEAR=1994
DGENRE=Japanese Rock
TTITLE0=Second Cry
TTITLE1=Fine Fine Fine
TTITLE2=A HENな飴玉
TTITLE3=Rock Star
TTITLE4=薔薇娼婦麗奈
TTITLE5=街の灯
TTITLE6=Red Light
TTITLE7=セルリアの丘
TTITLE8=悲しきASIAN BOY
TTITLE9=赤裸々GO!GO!GO!
TTITLE10=遥かな世界
TTITLE11=Merry X'mas
EXTD=YEAR: 1994
EXTT0=
EXTT1=
EXTT2=
EXTT3=
EXTT4=
EXTT5=
EXTT6=
EXTT7=
EXTT8=
EXTT9=
EXTT10=
EXTT11=
PLAYORDER=
